<svg width="25" height="28" viewBox="0 0 25 28" fill="none" xmlns="http://www.w3.org/2000/svg">
<path fill-rule="evenodd" clip-rule="evenodd" d="M17.4788 0H6.95758C6.16566 0.0565657 4.51394 0.712727 4.24242 2.88485H1.86667C1.30101 2.94141 0.135758 3.42788 0 4.92121V10.0121C0.0565657 11.1434 1.08606 13.5079 4.75152 13.9152C5.37374 15.7818 7.56848 19.4812 11.3697 19.3455V22.0606H7.63636C6.16566 22.7394 3.5297 24.8776 4.75152 28H19.3455C20.4202 26.9253 21.5515 24.2327 17.4788 22.0606H13.4061V19.3455C15.2162 19.2323 19.1079 17.9879 20.1939 13.9152C21.3818 13.9152 23.8933 13.2703 24.4364 10.6909V4.92121C24.3798 4.24242 23.8594 2.88485 22.2303 2.88485H20.1939C20.3636 1.92323 20.0582 0 17.4788 0ZM4.24242 4.92121H2.20606V10.0121C2.43232 10.5778 3.15636 11.777 4.24242 12.0485V4.92121ZM20.703 12.0485C21.2121 11.8788 22.2303 11.2339 22.2303 10.0121V4.92121H20.703V8.48485V12.0485Z" fill="white"/>
</svg>
