<?xml version="1.0" encoding="utf-8"?>
<!-- Generator: Adobe Illustrator 26.0.3, SVG Export Plug-In . SVG Version: 6.00 Build 0)  -->
<svg version="1.1" id="Laag_1" xmlns="http://www.w3.org/2000/svg" xmlns:xlink="http://www.w3.org/1999/xlink" x="0px" y="0px"
	 viewBox="0 0 227.7 227.7" style="enable-background:new 0 0 227.7 227.7;" xml:space="preserve">
<style type="text/css">
	.st0{fill:#FFFFFF;}
</style>
<g>
	<g>
		<path class="st0" d="M126.1,90.5c5-3.7,10.2-6.3,16-7.8c25.1-6.5,50.9,12.1,52.3,38c0.5,9.3,0.2,18.6,0.2,27.9
			c0,13.1,0,26.3,0,39.4c0,4.9-1.3,6.2-6.1,6.2c-9.6,0-19.3,0-28.9,0c-4.1,0-5.6-1.5-5.6-5.7c0-19.1,0-38.2,0-57.2
			c0-9.2-8.6-15.5-17.2-12.8c-5.1,1.6-8.6,6-9.1,11.4c-0.1,1.1-0.1,2.2-0.1,3.3c0,18.3,0,36.6,0,54.9c0,4.9-1.3,6.2-6.2,6.2
			c-9.5,0-19,0-28.5,0c-4.6,0-6-1.4-6-5.9c0-32.9,0-65.9,0-98.8c0-4.5,1.3-5.9,5.8-5.9c8.7,0,17.4,0,26.1,0
			C124.8,83.7,125.5,84.3,126.1,90.5z M118.8,185.5c0-1,0-1.8,0-2.7c0-15.1,0-30.2,0-45.3c0-2.8,0-5.5,0.2-8.3
			c0.9-12.9,13.6-22.3,26.2-19.5c10.3,2.3,17.3,10.9,17.4,21.6c0.1,17.2,0,34.4,0,51.6c0,0.8,0,1.7,0,2.5c7.9,0,15.5,0,23.2,0
			c0-0.8,0.1-1.4,0.1-2.1c0-19.7,0-39.3,0-59c0-2.7-0.2-5.4-0.8-8c-3.5-13.6-12.1-22.4-25.8-25.4c-13.5-2.9-24.7,1.6-33.5,12.2
			c-2,2.4-3.4,3.1-5.5,2.4c-2.2-0.7-3-2.2-3-5.4c0-2.5,0-5,0-7.6c-7.4,0-14.5,0-21.6,0c0,31.1,0,61.9,0,92.9
			C103.4,185.5,111,185.5,118.8,185.5z"/>
		<path class="st0" d="M76.4,139c0,16.5,0,32.9,0,49.4c0,4.4-1.4,5.8-5.9,5.8c-9.7,0-19.4,0-29.2,0c-4.1,0-5.6-1.5-5.6-5.6
			c0-33.1,0-66.2,0-99.3c0-4.3,1.4-5.7,5.8-5.7c9.7,0,19.4,0,29.2,0c4.4,0,5.8,1.4,5.8,5.7C76.4,106,76.4,122.5,76.4,139z
			 M67.5,185.5c0-31,0-62,0-92.9c-7.8,0-15.4,0-23,0c0,31,0,61.9,0,92.9C52.3,185.5,59.9,185.5,67.5,185.5z"/>
		<path class="st0" d="M33.1,56.1c0.2-12.8,10.7-23,23.3-22.7C69.2,33.7,79.3,44.2,79,57c-0.3,12.4-10.8,22.6-23.2,22.4
			C43.1,79.2,32.9,68.6,33.1,56.1z M41.8,56.4c0,7.8,6.5,14.3,14.3,14.2c7.8-0.1,14.2-6.5,14.2-14.4c0-7.8-6.5-14.3-14.3-14.2
			C48.1,42.1,41.8,48.6,41.8,56.4z"/>
	</g>
	<g>
		<path class="st0" d="M212.5,225.6H15.2c-7.2,0-13.1-5.9-13.1-13.1V15.2C2.1,8,8,2.1,15.2,2.1h197.3c7.2,0,13.1,5.9,13.1,13.1
			v197.3C225.6,219.7,219.7,225.6,212.5,225.6z M15.2,11.2c-2.2,0-3.9,1.8-3.9,3.9v197.3c0,2.2,1.8,3.9,3.9,3.9h197.3
			c2.2,0,3.9-1.8,3.9-3.9V15.2c0-2.2-1.8-3.9-3.9-3.9L15.2,11.2L15.2,11.2z"/>
	</g>
</g>
</svg>
