<?xml version="1.0" encoding="utf-8"?>
<!-- Generator: Adobe Illustrator 26.0.3, SVG Export Plug-In . SVG Version: 6.00 Build 0)  -->
<svg version="1.1" id="Laag_1" xmlns="http://www.w3.org/2000/svg" xmlns:xlink="http://www.w3.org/1999/xlink" x="0px" y="0px"
	 viewBox="0 0 228.2 152.5" style="enable-background:new 0 0 228.2 152.5;" xml:space="preserve">
<style type="text/css">
	.st0{fill:#FFFFFF;}
</style>
<path class="st0" d="M20.9,23.9v104.5c0,6.1,3.6,9.8,9.7,9.8h167.1c2.9,0,5.4-0.8,7.1-2.5c1.7-1.7,2.6-4.2,2.6-7.2V24
	c0-0.8,0-1.7-0.1-2.3c-0.9-4.7-4.4-7.3-9.7-7.3H30.9c-0.1,0-0.2,0-0.2,0c-5.3,0-8.8,2.6-9.6,7.2C20.9,22.3,20.9,23.1,20.9,23.9z
	 M197.5,19.9c0,0-28,20.9-40.2,30.1c-12.2,9.2-24.5,18.4-36.7,27.5c-2,1.5-4.3,2.3-6.4,2.3c-2.3-0.1-4.6-0.9-6.4-2.3
	C84.6,60.2,30.4,19.9,30.4,19.9H197.5z M26.7,23.9l1.3,0.9c0.5,0.3,0.9,0.6,1.2,0.9c0.2,0.2,0.4,0.3,0.6,0.5l9.1,6.8
	c21.3,16,43.3,32.5,65.1,48.8c3.2,2.4,6.6,3.6,10.1,3.6s6.9-1.2,10.1-3.6c12.4-9.3,24.7-18.6,37.1-27.8
	c12.4-9.3,24.7-18.5,37.1-27.8c0.2-0.2,0.5-0.4,0.9-0.6c0.3-0.2,0.6-0.4,1-0.7l1.4-1.1v105l-3-3.7c-3.5-4.3-6.8-8.3-10-12.4
	c-4.7-5.9-9.5-11.7-14.2-17.6c-4.7-5.8-9.4-11.6-14.1-17.5c-1.6-2-2.8-1.9-3.8-1.5c-0.8,0.3-1.4,1-1.6,1.8c-0.2,0.9,0.1,2,0.8,2.8
	c2.6,3.3,5.2,6.5,7.9,9.7c2.6,3.2,5.2,6.4,7.8,9.6c4,4.9,8,9.9,12,14.8c4,4.9,8,9.9,12,14.8c0.3,0.4,0.7,0.9,1.2,1.6l0.8,1.3l-1.5,0
	c-27.2,0.1-54.8,0.1-81.5,0.1H30.9l1.3-1.8c0.3-0.4,0.5-0.7,0.8-1.1c4-4.9,8-9.9,12-14.8c4-4.9,8-9.9,12-14.8
	c2.6-3.2,5.2-6.4,7.8-9.6c2.6-3.2,5.2-6.4,7.8-9.7c0.7-0.9,1-2,0.8-2.9c-0.2-0.8-0.7-1.4-1.6-1.8c-0.9-0.4-2.1-0.5-3.8,1.5
	c-4.7,5.8-9.4,11.7-14.2,17.5c-4.7,5.8-9.5,11.7-14.2,17.5c-3.4,4.2-7.1,8.7-11.5,14.3l-1.5,1.9V23.9z"/>
<path class="st0" d="M200.6,14.9"/>
</svg>
