<?xml version="1.0" encoding="utf-8"?>
<!-- Generator: Adobe Illustrator 26.0.3, SVG Export Plug-In . SVG Version: 6.00 Build 0)  -->
<svg version="1.1" id="Laag_1" xmlns="http://www.w3.org/2000/svg" xmlns:xlink="http://www.w3.org/1999/xlink" x="0px" y="0px"
	 viewBox="0 0 228.2 152.5" style="enable-background:new 0 0 228.2 152.5;" xml:space="preserve">
<style type="text/css">
	.st0{fill:#FFFFFF;}
</style>
<path class="st0" d="M9.9,17.7v116.8c0,6.8,4,10.9,10.8,10.9h186.8c3.3,0,6-0.9,7.9-2.8c1.9-1.9,2.9-4.7,2.9-8V17.8
	c0-0.9,0-1.9-0.2-2.6c-1-5.2-4.9-8.2-10.8-8.2H21.1c-0.1,0-0.2,0-0.3,0C14.9,7,11,10,10.1,15.1C9.9,16,9.9,16.8,9.9,17.7z
	 M207.3,13.2c0,0-31.3,23.3-45,33.6c-13.7,10.3-27.3,20.5-41,30.8c-2.3,1.7-4.8,2.5-7.1,2.5c-2.6-0.1-5.1-1-7.1-2.5
	C81.1,58.3,20.5,13.2,20.5,13.2H207.3z M16.4,17.7l1.5,1c0.5,0.4,1,0.7,1.4,1c0.2,0.2,0.5,0.3,0.7,0.5l10.2,7.6
	c23.8,17.9,48.4,36.4,72.7,54.5c3.6,2.7,7.4,4,11.3,4s7.7-1.4,11.3-4c13.8-10.4,27.6-20.7,41.4-31.1c13.8-10.4,27.6-20.7,41.4-31.1
	c0.3-0.2,0.6-0.5,1-0.7c0.3-0.2,0.7-0.5,1.1-0.8l1.5-1.2v117.4l-3.4-4.1c-3.9-4.8-7.6-9.3-11.2-13.9c-5.3-6.5-10.6-13.1-15.9-19.7
	c-5.3-6.5-10.5-13-15.8-19.5c-1.8-2.3-3.2-2.1-4.3-1.7c-0.9,0.4-1.5,1.1-1.8,2c-0.2,1,0.1,2.2,0.9,3.2c2.9,3.6,5.9,7.3,8.8,10.9
	c2.9,3.6,5.8,7.2,8.7,10.8c4.5,5.5,8.9,11,13.4,16.5c4.5,5.5,8.9,11,13.4,16.5c0.4,0.5,0.8,1,1.3,1.8l0.9,1.4l-1.7,0
	c-30.5,0.1-61.3,0.1-91.2,0.1h-93l1.5-2c0.3-0.4,0.6-0.8,0.9-1.2c4.5-5.5,8.9-11,13.4-16.5c4.5-5.5,8.9-11,13.4-16.5
	c2.9-3.6,5.8-7.2,8.7-10.8c2.9-3.6,5.8-7.2,8.8-10.8c0.8-1,1.1-2.2,0.9-3.2c-0.2-0.9-0.8-1.6-1.7-2c-1-0.4-2.4-0.6-4.3,1.7
	C57.3,84.3,52,90.8,46.7,97.3c-5.3,6.5-10.6,13.1-15.8,19.6c-3.8,4.7-7.9,9.8-12.9,16l-1.7,2.1V17.7z"/>
<path class="st0" d="M210.8,7.7"/>
</svg>
