<?xml version="1.0" encoding="utf-8"?>
<!-- Generator: Adobe Illustrator 26.0.3, SVG Export Plug-In . SVG Version: 6.00 Build 0)  -->
<svg version="1.1" id="Laag_1" xmlns="http://www.w3.org/2000/svg" xmlns:xlink="http://www.w3.org/1999/xlink" x="0px" y="0px"
	 viewBox="0 0 227.7 190.3" style="enable-background:new 0 0 227.7 190.3;" xml:space="preserve">
<style type="text/css">
	.st0{fill:#FFFFFF;}
</style>
<g>
	<path class="st0" d="M113.9,5c31.8,0,63.5,0,95.3,0c8.9,0,13.6,4.8,13.6,13.7c0,50.9,0,101.9,0,152.8c0,8.9-4.7,13.7-13.6,13.7
		c-63.6,0-127.2,0-190.8,0c-8.7,0-13.5-4.8-13.5-13.6c0-41.6,0-83.3,0-124.9c0-9.4,0-18.9,0-28.3C4.9,9.9,9.7,5,18.1,5
		C50,5,82,5,113.9,5z M11.8,45.6c0,0.8-0.1,1.4-0.1,2c0,41.5,0,83,0,124.5c0,4.4,1.9,6.3,6.5,6.3c63.8,0,127.5,0,191.3,0
		c4.8,0,6.6-1.8,6.6-6.6c0-41.3,0-82.6,0-123.9c0-0.8-0.1-1.5-0.1-2.3C147.7,45.6,79.8,45.6,11.8,45.6z M216,38.6
		c0-7.4,0.1-14.7-0.1-22c-0.1-3-2.4-4.7-5.8-4.7c-64.1,0-128.2,0-192.4,0c-4.1,0-6,2-6,6.1c0,5.5,0,11,0,16.5c0,1.3,0,2.7,0,4
		C79.9,38.6,147.9,38.6,216,38.6z"/>
	<path class="st0" d="M113.6,108.9c-1.9,6.1-3.8,12.2-5.8,18.3c-0.3,1-0.8,2-1.6,2.7c-1.9,1.6-4.4,0.5-5.3-2.2
		c-2.3-7.1-4.5-14.3-6.8-21.5c-0.8-2.7-1.7-5.3-2.5-8c-0.7-2.3,0.1-4.2,1.9-4.8c2-0.7,3.8,0.3,4.5,2.7c2,6.3,4,12.7,6.2,19.5
		c0.7-2.1,1.3-3.8,1.8-5.5c1.5-4.6,2.9-9.3,4.4-13.9c0.5-1.7,1.5-3,3.4-3c2,0,2.9,1.2,3.5,2.9c1.7,5.5,3.5,11,5.2,16.6
		c0.3,0.8,0.6,1.6,1,2.9c2-6.4,3.9-12.4,5.8-18.4c0.1-0.4,0.3-0.8,0.4-1.2c0.8-2.2,2.5-3.2,4.4-2.6c1.8,0.6,2.7,2.4,2,4.6
		c-3.1,10-6.3,19.9-9.4,29.8c-0.5,1.6-1.6,2.6-3.3,2.6c-1.8,0-2.9-1-3.4-2.7c-1.8-5.7-3.6-11.3-5.3-17c-0.2-0.7-0.5-1.3-0.7-2
		C113.9,108.9,113.7,108.9,113.6,108.9z"/>
	<path class="st0" d="M58.2,108.9c-1.9,6.1-3.9,12.2-5.8,18.4c-0.6,1.9-1.5,3.4-3.6,3.3c-2,0-2.9-1.4-3.5-3.2
		c-3-9.6-6-19.2-9.1-28.8c-0.6-1.8-0.6-3.4,1.1-4.6c2-1.4,4.4-0.4,5.3,2.3c1.8,5.7,3.6,11.4,5.4,17.2c0.2,0.6,0.4,1.2,0.8,2.2
		c0.4-1.2,0.7-1.9,1-2.7c1.7-5.4,3.5-10.9,5.1-16.3c0.6-1.8,1.4-3.2,3.5-3.2c2.1,0,3,1.3,3.5,3.1c1.8,5.7,3.6,11.4,5.4,17.2
		c0.2,0.5,0.4,1,0.7,2c2-6.3,3.9-12.2,5.7-18.1c0.1-0.4,0.2-0.8,0.4-1.2c0.8-2.4,2.5-3.5,4.5-2.8c1.9,0.6,2.7,2.5,2,4.9
		c-0.9,3.1-1.9,6.1-2.9,9.2c-2.1,6.7-4.3,13.5-6.4,20.2c-0.5,1.7-1.6,2.7-3.4,2.7c-1.7,0-2.8-1-3.3-2.6c-0.1-0.3-0.2-0.7-0.3-1
		c-1.7-5.4-3.4-10.8-5.1-16.1c-0.2-0.7-0.4-1.3-0.7-2C58.5,108.8,58.4,108.9,58.2,108.9z"/>
	<path class="st0" d="M159.7,115.7c1.7-5.3,3.2-10.2,4.8-15.1c0.5-1.5,0.9-3,1.4-4.5c0.5-1.7,1.5-2.7,3.4-2.7c1.9,0,2.8,1.1,3.4,2.8
		c1.8,5.9,3.7,11.7,5.5,17.6c0.1,0.5,0.3,0.9,0.7,1.9c0.9-2.8,1.6-5.1,2.4-7.4c1.2-3.9,2.5-7.9,3.7-11.9c0.8-2.5,2.4-3.5,4.4-2.9
		c2,0.5,2.8,2.5,2.1,4.9c-3,9.7-6.2,19.5-9.2,29.2c-0.5,1.8-1.5,3-3.4,3c-2,0-3-1.3-3.5-3.1c-1.9-6.2-3.9-12.4-6-19.1
		c-0.4,1.1-0.7,1.7-0.9,2.3c-1.7,5.5-3.5,11-5.2,16.6c-0.6,1.8-1.4,3.4-3.6,3.4c-2.2,0-3.1-1.5-3.6-3.3c-3-9.5-6-19.1-9-28.6
		c-1-3.1,0.4-5.4,3.2-5.3c1.9,0.1,2.7,1.3,3.2,2.9c1.8,5.7,3.6,11.4,5.4,17.2C159.1,114.1,159.3,114.6,159.7,115.7z"/>
	<path class="st0" d="M59.3,25.3c0,2.7-2.2,4.9-4.9,4.9c-2.7,0-5.1-2.4-5-5.1c0.1-2.7,2.3-4.8,5-4.8C57.2,20.4,59.3,22.6,59.3,25.3z
		"/>
	<path class="st0" d="M69.1,25.3c0-2.7,2.1-4.9,4.9-4.9c2.7,0,4.9,2.1,5,4.8c0.1,2.7-2.3,5.1-5,5C71.2,30.2,69.1,28,69.1,25.3z"/>
	<path class="st0" d="M29.9,25.3c0-2.7,2.1-4.9,4.9-4.9c2.7,0,4.9,2.1,5,4.8c0.1,2.8-2.2,5.1-5,5.1C32.1,30.2,29.9,28,29.9,25.3z"/>
</g>
</svg>
